<?xml version="1.0" encoding="utf-8"?>
<!-- Generator: Adobe Illustrator 25.4.1, SVG Export Plug-In . SVG Version: 6.00 Build 0)  -->
<svg version="1.1" id="Layer_1" xmlns="http://www.w3.org/2000/svg" xmlns:xlink="http://www.w3.org/1999/xlink" x="0px" y="0px"
	 viewBox="0 0 1920 1080" style="enable-background:new 0 0 1920 1080;" xml:space="preserve">
<style type="text/css">
	.st0{fill:#F4F4F4;}
</style>
<path class="st0" d="M1073.66,710.71c-7.11,0-10.42,0-11.66,0c-0.43,0-0.61,0-0.61,0c-1.24,0-4.55,0-11.66,0
	c-27.45,0-33.03,22.43-33.03,33.25c0,2.15,0,4.72,0,7.44c0,0,0,13.52,0,24.47c0,2.72,0,5.29,0,7.44c0,10.82,5.57,33.25,33.03,33.25
	c2.98,0,5.43,0,7.48,0c1.66,0,3.05,0,4.18,0c0.21,0,0.42,0,0.61,0c3.06,0,4.14,0,4.18,0c2.05,0,4.5,0,7.48,0
	c27.45,0,33.03-22.43,33.03-33.25c0-2.15,0-4.72,0-7.44c0,0,0-13.52,0-24.47c0-2.72,0-5.29,0-7.44
	C1106.69,733.14,1101.12,710.71,1073.66,710.71z M1071.35,792.09c-5.79,0-8.26,0-9.29,0c0,0-0.05,0-0.05,0c-0.07,0-0.25,0-0.61,0
	c-0.02,0-0.03,0-0.05,0c-1.04,0-3.5,0-9.29,0c-11.35,0-10.87-10.28-10.87-10.28v-5.94V751.4v-5.94c0,0-0.48-10.28,10.87-10.28
	c5.79,0,8.26,0,9.29,0c0,0,0.05,0,0.05,0c0.07,0,0.25,0,0.61,0c0.02,0,0.03,0,0.05,0c1.04,0,3.5,0,9.29,0
	c11.35,0,10.87,10.28,10.87,10.28v5.94v24.47v5.94C1082.22,781.81,1082.7,792.09,1071.35,792.09z"/>
<path class="st0" d="M976.63,752.02c-1.65-0.83-4.94-0.62-6.91-0.62c-11.43,0-4.02,0-15.44,0c-2.42,0-10.75,0.72-10.75-7.78
	s7.71-8.44,10.75-8.44h34.28c6.76,0,12.23-5.48,12.23-12.23c0-6.76-5.48-12.24-12.23-12.24H949.2c-24.15,0-29.67,22.26-29.67,33.39
	c0,9.57,5.23,26.19,23.44,30.43c1.65,0.83,6.39,1.34,8.36,1.34c11.43,0,3.29,0,14.72,0c3.37,0,10.75,0,10.75,8.5
	c0,8.5-6.76,8.44-10.75,8.44h-34.28c-6.76,0-12.23,5.48-12.23,12.23c0,6.76,5.48,12.24,12.23,12.24h39.35
	c24.15,0,29.67-22.26,29.67-33.39C1000.79,774.33,994.85,755.45,976.63,752.02z"/>
<path class="st0" d="M891.13,735.18c6.76,0,12.23-5.48,12.23-12.23v0c0-6.76-5.48-12.23-12.23-12.23h-63.27
	c-0.33,0-0.65,0.07-0.98,0.1c-0.33-0.03-0.64-0.1-0.98-0.1l0,0c-6.76,0-12.23,5.48-12.23,12.23c0,0,0,49.55,0,60.37
	c0,10.82,5.57,33.25,33.03,33.25s44.43,0,44.43,0c6.76,0,12.23-5.48,12.23-12.23l0,0c0-6.76-5.48-12.23-12.23-12.23
	c0,0-30.76,0-42.11,0c-11.35,0-10.87-10.28-10.87-10.28v-5.94h36.7c6.76,0,12.23-5.48,12.23-12.24l0,0
	c0-6.76-5.48-12.23-12.23-12.23h-36.7v-16.22H891.13z"/>
<path class="st0" d="M773.84,722.95c0-6.76,5.48-12.23,12.23-12.23l0,0c6.76,0,12.24,5.48,12.24,12.23v80.15
	c0,0.33-0.07,0.65-0.1,0.98c0.03,0.33,0.1,0.64,0.1,0.98v0c0,6.76-5.48,12.23-12.24,12.23c0,0-82.37,0-93.19,0
	s-33.25-5.57-33.25-33.03c0-27.45,0-61.31,0-61.31c0-6.76,5.48-12.23,12.23-12.23l0,0c6.76,0,12.23,5.48,12.23,12.23
	c0,0,0,47.65,0,59s10.28,10.87,10.28,10.87h23.07v-69.87c0-6.76,5.48-12.23,12.23-12.23h0c6.76,0,12.23,5.48,12.23,12.23v59.73
	c0,0-1.68,10.14,8.4,10.14c10.08,0,23.51,0,23.51,0V722.95z"/>
<path class="st0" d="M1146.82,805.05c0,6.76-5.48,12.23-12.24,12.23l0,0c-6.76,0-12.23-5.48-12.23-12.23V724.9
	c0-0.33,0.07-0.65,0.1-0.98c-0.03-0.33-0.1-0.64-0.1-0.98v0c0-6.76,5.48-12.23,12.23-12.23c0,0,82.37,0,93.19,0
	c10.82,0,33.25,5.57,33.25,33.03c0,27.45,0,61.31,0,61.31c0,6.76-5.48,12.23-12.23,12.23h0c-6.76,0-12.23-5.48-12.23-12.23
	c0,0,0-47.65,0-59s-10.28-10.87-10.28-10.87h-23.07v69.87c0,6.76-5.48,12.23-12.23,12.23l0,0c-6.76,0-12.23-5.48-12.23-12.23v-59.73
	c0,0,1.68-10.14-8.4-10.14c-10.08,0-23.51,0-23.51,0V805.05z"/>
<path class="st0" d="M1354.13,735.18c6.76,0,12.23-5.48,12.23-12.23v0c0-6.76-5.48-12.23-12.23-12.23h-63.27
	c-0.33,0-0.65,0.07-0.98,0.1c-0.33-0.03-0.64-0.1-0.98-0.1l0,0c-6.76,0-12.23,5.48-12.23,12.23c0,0,0,49.55,0,60.37
	c0,10.82,5.57,33.25,33.03,33.25c27.45,0,44.43,0,44.43,0c6.76,0,12.23-5.48,12.23-12.23l0,0c0-6.76-5.48-12.23-12.23-12.23
	c0,0-30.76,0-42.11,0c-11.35,0-10.87-10.28-10.87-10.28v-5.94h36.7c6.76,0,12.24-5.48,12.24-12.24l0,0
	c0-6.76-5.48-12.23-12.24-12.23h-36.7v-16.22H1354.13z"/>
<path class="st0" d="M631.1,710.71c-0.29,0-0.57,0.07-0.86,0.09c-0.29-0.02-0.57-0.09-0.86-0.09c0,0-14.8,0-42.25,0
	c-27.45,0-33.03,22.43-33.03,33.25s0,60.37,0,60.37c0,6.76,5.48,12.23,12.23,12.23h0c6.76,0,12.23-5.48,12.23-12.23v-20.21h40.29
	v20.21c0,6.76,5.48,12.23,12.24,12.23c6.76,0,12.23-5.48,12.23-12.23v-81.38C643.34,716.19,637.86,710.71,631.1,710.71z
	 M578.57,759.65v-14.19c0,0-0.49-10.28,10.87-10.28c6.88,0,20.08,0,29.42,0v24.47H578.57z"/>
<g>
	<path class="st0" d="M580.36,900.33l-10.71-29.29h4.59l5.08,14.44c1.4,3.95,2.62,7.52,3.5,10.93h0.11
		c0.92-3.38,2.26-7.07,3.72-10.88l5.53-14.49h4.52l-11.68,29.29H580.36z"/>
	<path class="st0" d="M626.8,871.05v29.29h-4.25v-29.29H626.8z"/>
	<path class="st0" d="M655.94,895.72c1.89,1.06,4.64,1.9,7.55,1.9c4.32,0,6.86-2.02,6.86-4.99c0-2.72-1.77-4.32-6.19-5.79
		c-5.34-1.7-8.65-4.21-8.65-8.31c0-4.56,4.23-7.94,10.6-7.94c3.32,0,5.79,0.69,7.21,1.42l-1.18,3.1c-1.04-0.55-3.23-1.39-6.18-1.39
		c-4.49,0-6.19,2.38-6.19,4.38c0,2.72,1.99,4.06,6.5,5.62c5.55,1.95,8.34,4.33,8.34,8.63c0,4.49-3.7,8.45-11.44,8.45
		c-3.16,0-6.61-0.86-8.36-1.91L655.94,895.72z"/>
	<path class="st0" d="M706.97,871.05v17.36c0,6.53,3.24,9.31,7.65,9.31c4.81,0,7.95-2.87,7.95-9.31v-17.36h4.25v17.09
		c0,9-5.29,12.68-12.38,12.68c-6.68,0-11.72-3.41-11.72-12.51v-17.25H706.97z"/>
	<path class="st0" d="M760.12,891.13l-3.38,9.2h-4.38l11.12-29.29h5.08l11.17,29.29h-4.52l-3.5-9.2H760.12z M770.87,888.17
		l-3.24-8.43c-0.71-1.92-1.2-3.66-1.68-5.34h-0.12c-0.47,1.71-0.98,3.5-1.62,5.29l-3.22,8.48H770.87z"/>
	<path class="st0" d="M806.85,871.05h4.25v26.09h13.98v3.19h-18.23V871.05z"/>
	<path class="st0" d="M884.7,871.4c2.04-0.32,4.71-0.58,8.13-0.58c4.15,0,7.21,0.86,9.17,2.43c1.77,1.4,2.88,3.52,2.88,6.13
		c0,2.65-0.88,4.75-2.54,6.27c-2.25,2.14-5.87,3.21-9.99,3.21c-1.28,0-2.44-0.04-3.41-0.27v11.75h-4.22V871.4z M888.92,885.51
		c0.94,0.24,2.12,0.33,3.5,0.33c5.12,0,8.22-2.25,8.22-6.25c0-3.88-3.09-5.77-7.72-5.77c-1.86,0-3.25,0.15-4,0.3V885.51z"/>
	<path class="st0" d="M949.78,886.6H937.1v10.58h14.18v3.15h-18.43v-29.29h17.68v3.15H937.1v9.28h12.68V886.6z"/>
	<path class="st0" d="M979.06,871.45c2.14-0.38,5.22-0.63,8.12-0.63c4.48,0,7.44,0.76,9.48,2.41c1.61,1.28,2.57,3.28,2.57,5.57
		c0,3.85-2.74,6.41-6.17,7.46v0.1c2.49,0.78,4,2.9,4.8,5.93c1.08,4.09,1.85,6.89,2.52,8.04h-4.38c-0.51-0.85-1.25-3.34-2.15-7.01
		c-0.97-4.01-2.74-5.56-6.56-5.68h-4v12.69h-4.22V871.45z M983.28,884.78h4.32c4.52,0,7.38-2.2,7.38-5.56c0-3.8-3.06-5.46-7.52-5.46
		c-2.05,0-3.46,0.16-4.18,0.33V884.78z"/>
	<path class="st0" d="M1027.5,871.05h17.61v3.15h-13.37v9.75h12.35v3.13h-12.35v13.25h-4.25V871.05z"/>
	<path class="st0" d="M1101.43,885.4c0,10.05-6.84,15.41-15.18,15.41c-8.67,0-14.7-6.01-14.7-14.86c0-9.28,6.42-15.38,15.14-15.38
		C1095.63,870.57,1101.43,876.69,1101.43,885.4z M1076.03,885.86c0,6.27,3.8,11.87,10.46,11.87c6.71,0,10.48-5.52,10.48-12.17
		c0-5.83-3.4-11.92-10.42-11.92C1079.52,873.64,1076.03,879.45,1076.03,885.86z"/>
	<path class="st0" d="M1129.23,871.45c2.14-0.38,5.22-0.63,8.12-0.63c4.48,0,7.44,0.76,9.48,2.41c1.61,1.28,2.57,3.28,2.57,5.57
		c0,3.85-2.74,6.41-6.17,7.46v0.1c2.49,0.78,4,2.9,4.8,5.93c1.08,4.09,1.85,6.89,2.52,8.04h-4.38c-0.51-0.85-1.25-3.34-2.15-7.01
		c-0.97-4.01-2.74-5.56-6.56-5.68h-4v12.69h-4.22V871.45z M1133.45,884.78h4.32c4.52,0,7.38-2.2,7.38-5.56
		c0-3.8-3.06-5.46-7.52-5.46c-2.05,0-3.46,0.16-4.18,0.33V884.78z"/>
	<path class="st0" d="M1205.27,887.47c-0.25-4.07-0.55-9.01-0.52-12.63h-0.13c-1.13,3.4-2.48,7.09-4.12,11.1l-5.77,14.21h-3.19
		l-5.33-13.95c-1.56-4.14-2.83-7.89-3.74-11.36h-0.11c-0.12,3.65-0.33,8.52-0.64,12.92l-0.87,12.57h-4.01l2.28-29.29h5.4l5.57,14.18
		c1.35,3.59,2.45,6.81,3.3,9.87h0.13c0.86-2.97,2-6.19,3.46-9.86l5.83-14.18h5.4l2.03,29.29h-4.15L1205.27,887.47z"/>
	<path class="st0" d="M1243.27,871.05v29.29h-4.25v-29.29H1243.27z"/>
	<path class="st0" d="M1272.95,900.33v-29.29h4.64l10.47,14.8c2.39,3.43,4.29,6.51,5.84,9.54l0.11-0.05
		c-0.38-3.91-0.46-7.48-0.46-12.02v-12.27h3.98v29.29h-4.29l-10.39-14.84c-2.25-3.28-4.45-6.62-6.09-9.81l-0.14,0.05
		c0.25,3.71,0.31,7.24,0.31,12.08v12.52H1272.95z"/>
	<path class="st0" d="M1352.14,899.02c-1.89,0.64-5.65,1.61-10.05,1.61c-4.96,0-9.05-1.12-12.23-3.87
		c-2.82-2.43-4.55-6.32-4.55-10.87c0.01-8.73,6.72-15.13,17.68-15.13c3.78,0,6.77,0.74,8.18,1.34l-1.06,3.08
		c-1.74-0.71-3.92-1.26-7.22-1.26c-7.93,0-13.14,4.42-13.14,11.76c0,7.42,4.97,11.81,12.62,11.81c2.76,0,4.64-0.35,5.61-0.79v-8.72
		h-6.62v-3.03h10.77V899.02z"/>
</g>
<path class="st0" d="M924.16,187.6l239.56,411.39H743.99l154.93-273.5l112.25,190.5c0,0-139.65-0.22-151.18-0.22
	c-16.88,0-55.77,14.21-57.02,55.43c0,0,205.64-0.53,208.93-0.53c0.65,0,23.76,2.04,41.43-21.55c18.73-25.02,12.45-48.56,2.79-65.15
	c-15.69-26.95-105.86-180.37-108.63-185.23c-6.5-11.42-19.8-34.04-24.78-42.87c-7.37-13.06-12.27-18.66-23.8-18.67
	c-12.9-0.01-16.57,7.56-23.55,18.28c-10.21,15.7-27.1,45.53-27.1,45.53S708.93,542.76,702.19,554.44
	c-15.61,27.03-29.23,48.85-5.9,81.85c15.49,21.91,43.65,21.13,46.16,21.13c13.86,0,411.06-0.02,421.89-0.02s30.49-4.48,45.57-25.73
	c22.86-32.22-5.09-71.31-9.81-79.33c-4.72-8.02-195.46-338.46-200.7-346.47C985.81,185.11,955.94,170.62,924.16,187.6z"/>
</svg>
